<svg id="Layer_1" xmlns="http://www.w3.org/2000/svg" viewBox="0 0 104 104">
  <style>
    .st0{fill:#5E7185;fill-opacity:0.5}.st2{fill:#5E7185}.st7{fill:#F4D3AA}.st8{fill:#6391C3}.st10{fill:#FFFFFF}.st11{opacity:0.3}.st12{fill:#EEF3F9}.st13{opacity:0.9}.st14{fill:#F0F2F8}.st15{fill:#EEF0F7}.st16{fill:#EFF1F9}.st17{fill:#C3D0E5}.st18{fill:#CBD6E9}.st19{fill:#C6D3E7}.st20{fill:#CED7E9}.st21{fill:#DBE2EF}.st22{fill:#D6DEED}.st23{fill:#DFE4F0}.st24{fill:#E7EAF5}.st25{fill:#4F5158}.st26{fill:#505158}.st28{fill:#346491}
  </style>
  <path id="Shape_21_" class="st0" d="M52 103.74a2.26 2.26 0 0 1-2.26-2.26V6.52a2.26 2.26 0 1 1 4.52 0v94.96a2.26 2.26 0 0 1-2.26 2.26z"/>
  <path id="Shape_19_" class="st0" d="M29.39 103.74a2.25 2.25 0 0 1-1.77-3.67L41.2 84.99a2.26 2.26 0 0 1 3.53 2.83l-13.56 15.07c-.45.56-1.1.85-1.77.85z"/>
  <path id="Shape_17_" class="st0" d="M74.61 103.74a2.3 2.3 0 0 1-1.77-.85L59.28 87.82a2.26 2.26 0 0 1 3.53-2.83l13.56 15.08a2.26 2.26 0 0 1-1.76 3.67z"/>
  <path d="M94.96 84.14v-73.1a2.26 2.26 0 0 0-2.26-2.26H11.3a2.26 2.26 0 0 0-2.26 2.26v73.1h85.92z" fill="#DFDFDE"/>
  <path id="Shape_16_" class="st2" d="M2.26 88.67a2.26 2.26 0 1 1 0-4.53h99.48a2.26 2.26 0 1 1 0 4.53H2.26z"/>
  <g id="file_1_">
    <path d="M62.49 13.76H28.62c-.99 0-1.75.76-1.75 2.25V78c.26.72.95 1.19 1.71 1.17h46.81c.76.02 1.45-.45 1.7-1.17V28.94c.1-.44-.02-.9-.3-1.27l-13.58-13.6c-.2-.2-.45-.3-.72-.31z" fill="#FFF" stroke="#BBC0C5" stroke-width=".39" stroke-miterlimit="10"/>
    <path d="M63.08 15.38v12.4h12.4a.6.6 0 0 0 .45-1.03L64.11 14.93a.6.6 0 0 0-1.03.42v.03z" fill="none"/>
  </g>
  <path d="M54.56 31.86h-5.14c-.7 0-1.17.58-1.17 1.16v20.8c0 .7.47 1.16 1.17 1.16h5.14c.7 0 1.16-.47 1.16-1.17V33.02c0-.7-.46-1.16-1.16-1.16zM44.4 44.7h-5.14c-.82 0-1.17.59-1.17 1.17v7.94c0 .7.35 1.17 1.17 1.17h5.13c.7 0 1.17-.47 1.17-1.17V46c0-.7-.46-1.17-1.17-1.17v-.12zm20.32-6.42h-5.14c-.7 0-1.17.58-1.17 1.17V53.8c0 .7.47 1.17 1.17 1.17h5.14c.82 0 1.17-.47 1.17-1.17V39.45c0-.7-.35-1.17-1.17-1.17z" fill="#F4BB6D"/>
  <path class="st2" d="M32.51 64.28h1.91c.2 0 .37.05.5.14.14.1.23.22.28.38l1.98 5.46a19.05 19.05 0 0 1 .53 1.66 10.16 10.16 0 0 1 .48-1.66l1.96-5.46a.8.8 0 0 1 .28-.36.8.8 0 0 1 .5-.16h1.91L38.75 74.5h-2.14l-4.1-10.22zm17.75 0v1.83h-4.2v2.38h3.22v1.75h-3.21v2.43h4.19v1.83h-6.57V64.28h6.57zm6.15 8.5a4.05 4.05 0 0 0 1.58-.3v-1.55h-1a.49.49 0 0 1-.35-.12.4.4 0 0 1-.13-.3v-1.3h3.63v4.3a5.13 5.13 0 0 1-1.72.84 7.52 7.52 0 0 1-2.19.26 5.34 5.34 0 0 1-3.73-1.5 5.38 5.38 0 0 1-1.49-3.73c0-.75.13-1.46.38-2.1a4.73 4.73 0 0 1 2.79-2.72 6.6 6.6 0 0 1 4.46 0 4.66 4.66 0 0 1 1.57.99l-.69 1.04a.62.62 0 0 1-.53.31.83.83 0 0 1-.44-.13c-.18-.12-.36-.21-.52-.3a3.22 3.22 0 0 0-1.06-.3c-.2-.03-.4-.04-.64-.04-.45 0-.85.08-1.2.23a2.85 2.85 0 0 0-1.49 1.69c-.13.4-.2.85-.2 1.34 0 .54.07 1.02.22 1.44.15.42.36.78.62 1.07.27.28.58.5.94.66.36.15.76.22 1.19.22zm14.67 1.72h-1.83a.85.85 0 0 1-.5-.15.73.73 0 0 1-.29-.37l-.6-1.78h-3.88l-.6 1.78a.79.79 0 0 1-.28.36.8.8 0 0 1-.5.16h-1.84l3.95-10.22h2.42l3.95 10.22zm-6.55-3.9h2.79l-.94-2.8-.22-.63-.24-.78a12.87 12.87 0 0 1-.45 1.42l-.94 2.78z"/>
  <circle cx="24" cy="24" r="24" fill="#9FC9EB" stroke="#FFF" stroke-width="2" stroke-miterlimit="10"/>
  <g id="XMLID_12_">
    <path id="XMLID_14_" class="st7" d="M23.9 39.9a1.12 1.12 0 0 0-.55-.33v-4.49h-.65v4.16a1.5 1.5 0 0 0-1.84.33c-.59.65-.1 2.43-.1 2.16 0-.16.27-.43.65-.65 0 .65.21 1.24.21 1.03.06-.54 2.87-1.68 2.27-2.22z"/>
    <path class="st8" d="M24 39.78c-.1-.1-.43-.21-.49-.32-.05-.1 0-.32 0-.43v-4c0-.06-.05-.11-.1-.11h-.65c-.06 0-.17.05-.17.1v4.17c.06-.05.17-.05.22-.1-.81-.39-2-.12-2.27.8-.1.38-.1.87-.05 1.25 0 .16.05.59.21.64.11.06.16 0 .22-.05.16-.27.32-.43.6-.65-.06 0-.17-.05-.22-.05 0 .21 0 1.08.27 1.19.1 0 .21 0 .21-.11.17-.54 2.92-1.57 2.22-2.33-.05-.1-.32.06-.22.17.33.37-.97 1.08-1.24 1.24-.38.22-.92.54-1.03 1.03.06-.06.17-.06.22-.11-.05-.06-.1-.97-.1-1.03 0-.1-.17-.1-.22-.05-.33.21-.5.43-.7.75.05 0 .15-.05.2-.05 0 0-.05-.32-.1-.43-.05-.27-.05-.6-.05-.87.05-.97 1.08-1.46 1.94-1.02.06.05.22 0 .22-.11v-4.16c-.06.05-.1.05-.16.1h.65c-.06-.05-.11-.05-.11-.1v4.48c0 .06 0 .06.05.11.16.05.33.16.49.32.05 0 .32-.16.16-.27z"/>
    <path id="XMLID_13_" class="st7" d="M24.27 40c.16-.16.32-.27.54-.32v-4.5h.6v4.17a1.5 1.5 0 0 1 1.83.33c.6.64.11 2.43.11 2.16 0-.16-.27-.43-.65-.65 0 .65-.21 1.24-.21 1.03 0-.54-2.81-1.68-2.22-2.22z"/>
    <path class="st8" d="M24.38 40c.1-.1.27-.22.43-.27a.1.1 0 0 0 .1-.1v-4.5c-.05.06-.1.06-.2.11.1 0 .53-.05.59 0-.11-.1-.06.17-.06.22v3.95c0 .05.22 0 .22 0 .86-.44 1.84.21 1.95 1.13 0 .27 0 .6-.06.87 0 .1-.16.43-.05.43h.21a1.62 1.62 0 0 0-.65-.7c-.05-.06-.27 0-.27.05 0 .22-.05.49-.1.7-.06.16-.17.33 0 .27h.16c-.1-.48-2.7-1.67-2.27-2.16.1-.1-.16-.05-.22 0-.6.65 2.11 1.68 2.22 2.32 0 .06.1.06.16 0 .38-.1.32-.86.32-1.13-.1 0-.16.05-.27.05.27.22.5.38.65.7.06.06.17 0 .22 0 .16-.05.22-.37.22-.53.05-.44.1-.92 0-1.36-.27-.91-1.52-1.08-2.33-.7h.22V35.2c0-.05-.06-.05-.11-.05h-.65c-.05 0-.22.05-.22.1v4.49l.11-.1c-.21.1-.38.2-.6.32-.1.1.17.1.28.05z"/>
  </g>
  <path d="M38.7 21.57a2.3 2.3 0 0 0-2.32-1.3c-.22.05-.49.1-.65.27 0-2.76-.1-5.35-.27-7.9A3.64 3.64 0 0 0 34 9.78c0-.05-.05-.16-.05-.21-.38-1.08-.06-2-.44-2.49-.54 0-2.27.27-3.19.7a5 5 0 0 0-1.3.92c-.97-.1-2-.16-3.07-.21a21.9 21.9 0 0 1-2.06-.65 14.7 14.7 0 0 1-3.3-1.95l2.7 2.38a14.7 14.7 0 0 1-4.65-2.43l3.04 2.65c-.76.05-1.46.05-2.17.16a5.4 5.4 0 0 0-1.46-1.03c-.86-.43-2.64-.7-3.19-.7-.37.43 0 1.4-.43 2.49 0 .05-.05.1-.05.16-.27.16-.49.32-.7.54a3.8 3.8 0 0 0-1.09 2.54c-.21 2.49-.32 5.08-.37 7.9a1.46 1.46 0 0 0-.65-.23c-.92-.16-1.9.38-2.33 1.3a12.36 12.36 0 0 0 1.24 10.6c.66-1.2 1.3-2.76 1.9-4.54v-.06c.05 1.24.16 2.49.27 3.68 0 .97.43 1.89 1.08 2.54a3.8 3.8 0 0 0 2.54 1.08c2.49.27 5.24.43 8.22.38 2.6 0 5.02-.16 7.24-.38.97 0 1.9-.43 2.54-1.08a3.8 3.8 0 0 0 1.08-2.54l.16-3.57c.54 1.78 1.25 3.3 1.84 4.49.6-.92 1.57-2.7 1.84-5.2a11.8 11.8 0 0 0-.49-5.45z" fill="#78A6D1"/>
  <path class="st8" d="M38.97 21.78c-.65-1.19-2.32-2.16-3.62-1.46l.6.44c0-2.22-.06-4.44-.17-6.65-.05-.97 0-1.95-.43-2.87-.16-.38-.43-.7-.76-1.02-.37-.38-.48-.76-.54-1.3-.05-.65.11-1.35-.43-1.78-.16-.11-.27-.22-.43-.28-.27-.05-.65.06-.92.11a6.2 6.2 0 0 0-2.22.65c-.37.16-.7.43-1.02.7-.22.17-.33.17-.6.11-.27 0-.6-.05-.86-.05-.6-.06-1.25 0-1.84-.11-.54-.1-1.08-.32-1.57-.49a13.44 13.44 0 0 1-3.13-1.67c-.17-.16-.38-.27-.6-.43.76.64 1.46 1.3 2.22 1.94.1.11.32.22.43.38l.06.05s-.82-.27-.87-.27a12.5 12.5 0 0 1-3.24-1.73c-.17-.16-.38-.27-.6-.43.65.6 1.3 1.14 1.95 1.73.32.27.76.54.97.87l.1.05c0 .05-.26 0-.37.05-.6.06-1.19.06-1.78.11l.6.43a8.36 8.36 0 0 0-2.12-1.5 6.97 6.97 0 0 0-1.51-.44c-.43-.1-1.03-.27-1.46-.22-.22.06-.27.16-.27.38-.05.27-.05.54-.05.76 0 .27 0 .54-.06.8-.05.17-.05.39-.16.55-.1.22-.27.27-.43.38a3.91 3.91 0 0 0-1.4 2.7c-.12 1.3-.22 2.54-.28 3.84-.05.65-.05 1.35-.1 2 0 .38 0 .75-.06 1.13v.92c.05.22 0 .27-.16.11-.16 0-.33-.1-.49-.16-.1 0-.27-.06-.38 0-.27 0-.54.05-.75.16-.54.22-.98.65-1.2 1.19a9.06 9.06 0 0 0-.59 2.92c-.21 2.7.43 5.4 1.9 7.62.05.05.59.38.59.43a27.1 27.1 0 0 0 1.9-4.6 9.1 9.1 0 0 1-.6-.42c.05 1.35.1 2.8.27 4.16.1 1.02.7 1.89 1.51 2.48.65.5 1.24.87 2.05 1.03.87.16 1.84.16 2.7.27a84.88 84.88 0 0 0 12.01-.05c1.19-.11 2.43-.06 3.46-.76a3.58 3.58 0 0 0 1.62-2.65c.16-1.3.1-2.65.16-3.94l-.6-.44A26.97 26.97 0 0 0 37.25 32l.6.43a12.68 12.68 0 0 0 1.13-10.65c-.05-.21-.54-.21-.6-.43 1.25 3.51.77 7.46-1.23 10.6l.59.43a26.97 26.97 0 0 1-1.84-4.49c-.05-.16-.6-.27-.6-.43l-.15 3.68a3.7 3.7 0 0 1-.76 2.1 3.7 3.7 0 0 1-2.65 1.4c-1.14.06-2.27.22-3.46.28a73.74 73.74 0 0 1-11.13-.16c-.7-.06-1.52-.06-2.22-.27a2.12 2.12 0 0 1-1.24-.92 3.79 3.79 0 0 1-.65-1.52c-.11-.64-.11-1.4-.17-2.05l-.16-2.22c0-.1-.6-.32-.6-.43a28.33 28.33 0 0 1-1.88 4.6l.6.43a12.48 12.48 0 0 1-1.8-8.65c.22-1.24.55-2.76 1.95-3.19.33-.1.65-.1 1.03-.05.05 0 .54.21.54.21.05-.05 0-.75 0-.86 0-.98.05-1.95.1-2.98.06-1.5.12-3.08.33-4.59.11-.65.38-1.3.81-1.84.27-.32.6-.48.87-.75s.32-.92.32-1.3c0-.33 0-.7.06-1.03.05-.38.16-.38.48-.32.65.05 1.3.16 1.9.38.32.1.64.16.91.32.11.05.76.49.5.27-.28-.22.04.05.15.16l.22.22c.1.1.27.21.43.32.27.22.54.11.92.06.16 0 1.46-.11 1.46-.11 0-.06-.16-.16-.16-.16-.33-.27-.65-.6-1.03-.87L18.97 6l-.6-.43a16.33 16.33 0 0 0 4.1 2.49c.12.05 1.1.32 1.15.37 0 0-.05-.05-.1-.05a6.32 6.32 0 0 0-.6-.49c-.33-.27-.6-.54-.92-.8l-1.14-.98-.59-.43c1.84 1.46 4.16 2.91 6.54 3.02.38 0 .81.06 1.19.06.38 0 .81.16 1.14.1.21-.05.48-.32.7-.48l.8-.49c.93-.38 2-.6 3.04-.65l-.6-.43c.27.38.22.87.22 1.3 0 .43.05 1.03.27 1.4.16.27.48.44.7.7.16.22.32.44.43.7.22.5.33 1.04.33 1.58.1 2.6.21 5.19.21 7.83 0 .06.6.44.6.44.43-.22.97-.33 1.46-.22.54.1.7.32.97.81.22.22.6.27.7.43z"/>
  <path id="XMLID_11_" class="st10" d="M23.35 14.7c.92 2.49 1.46 7.52-2.32 9.9a7.2 7.2 0 0 1-9.9-2.33c-2.32-3.73.22-8 2.33-9.9.49-.42 3.13-2.8 6.05-1.88 2.54.75 3.52 3.4 3.84 4.21z"/>
  <path class="st8" d="M23.03 14.7c.8 2.27 1.02 4.98 0 7.2a6.43 6.43 0 0 1-8.11 3.24 6.9 6.9 0 0 1-3.51-2.92 6.53 6.53 0 0 1-.7-5.03 9.77 9.77 0 0 1 4.86-6.16c.97-.54 2.1-.92 3.24-.7.87.16 1.73.64 2.38 1.24.86.92 1.4 2 1.84 3.13.05.11.6 0 .6 0a8.51 8.51 0 0 0-1.85-3.08 5.21 5.21 0 0 0-4.21-1.35c-2.92.27-5.4 2.6-6.65 5.08-.87 1.73-1.3 3.73-.65 5.57a7.17 7.17 0 0 0 3.4 3.94c2.7 1.41 6.5 1.09 8.7-1.08 2.39-2.27 2.39-6.16 1.3-9.08-.1-.1-.64 0-.64 0z"/>
  <path id="XMLID_10_" class="st10" d="M25.03 14.97c-.92 2.49-1.46 7.52 2.32 9.9a7.2 7.2 0 0 0 9.9-2.33c2.32-3.73-.22-8-2.33-9.9-.49-.42-3.14-2.8-6.06-1.88-2.54.75-3.5 3.4-3.83 4.21z"/>
  <path class="st8" d="M24.76 14.97c-.92 2.54-1.08 5.73.43 8.06 1.78 2.75 5.57 3.56 8.54 2.54a7.23 7.23 0 0 0 3.78-3.03 6.7 6.7 0 0 0 .54-5.57c-.91-2.7-3.13-5.24-5.89-6.16a5.56 5.56 0 0 0-5.19.76 8.28 8.28 0 0 0-2.21 3.4c0 .06.54.17.6 0 .37-.97.86-1.94 1.56-2.75 1.24-1.36 2.97-1.95 4.7-1.36 2.54.82 4.6 3.09 5.62 5.46a7 7 0 0 1 .27 5.03 6.86 6.86 0 0 1-3.19 3.68 6.65 6.65 0 0 1-8.48-1.9c-1.62-2.32-1.46-5.62-.54-8.16.05-.05-.49-.1-.54 0z"/>
  <path id="XMLID_9_" class="st10" d="M24.05 25.68c-4.05 0-7.67 6.86-6.8 9.35 0 .05 0 .05.05.1 2.1.17 4.43.28 6.92.28h.16c2.32 0 4.48-.17 6.48-.33 0-.05.06-.05.06-.1.81-2.55-2.81-9.3-6.87-9.3z"/>
  <path class="st8" d="M24.16 25.62c-1.73 0-3.19 1.03-4.32 2.27a11.8 11.8 0 0 0-2.7 4.97 4.25 4.25 0 0 0 0 2.33c4.54.38 9.08.38 13.56-.05.06 0 .16 0 .22-.06.32-.81.16-1.73-.06-2.6a10.42 10.42 0 0 0-1.45-3.13c-1.14-1.84-2.98-3.73-5.25-3.73-.05 0-.32.11-.16.11 2.32.05 4.16 2 5.3 3.84.6.92 1.02 1.89 1.35 2.97.21.81.38 1.73.05 2.54.06 0 .11-.05.22-.05-2.16.21-4.33.32-6.54.32-1.14 0-2.27 0-3.35-.05-.49 0-.98-.06-1.52-.06-.6-.05-1.19 0-1.73-.1-.37-.06-.37-.22-.43-.55a2.05 2.05 0 0 1 0-.8c.06-.6.22-1.2.38-1.79a11.7 11.7 0 0 1 2.05-3.68c1.03-1.3 2.49-2.54 4.22-2.54 0-.05.27-.16.16-.16z"/>
  <g class="st11">
    <ellipse id="XMLID_8_" class="st12" cx="17.57" cy="18.22" rx="1.89" ry="3.19"/>
    <g class="st13">
      <path class="st14" d="M19.19 19.68l.05-.11s-.05 0-.05-.06c0-.1-.1.22-.22.49-.05.05.06 0 .22-.32z"/>
      <path class="st15" d="M19.84 18.38v-.16.16z"/>
      <path class="st14" d="M19.51 18.7c0 .11 0 .22-.05.27 0 .11 0 .17-.05.27.05-.1.05-.16.1-.21s.11-.17.11-.27v-.33s0 .11-.05.22c0 .1-.06.21-.06.32v-.38c0 .06 0 .06-.05.11v.16l.05-.16zm-1.24 1.79c.05-.06.1-.11.1-.22l-.05.05-.05.06c0 .05-.05.1 0 .1h-.05v-.05l-.06.06h.06c-.06 0-.06.05-.11.05l-.06.05c.06.06.11-.05.22-.1z"/>
      <path class="st16" d="M17.3 20.76c0 .05 0 .05-.06.05.06 0 .11.05.11.05.06 0 .1.06.1.06-.04.05.06.16.28.16s.43-.1.54-.16c.1-.06.27-.16.43-.33.16-.16.27-.32.38-.43 0-.05 0-.05.06-.21a.41.41 0 0 0-.11.27.4.4 0 0 1 .1-.22c0 .05-.05.05-.05.05V20c-.1.1-.16.22-.27.32-.1.06-.16.11-.22.11l-.05.06c-.22.27-.32.27-.32.21-.11.11-.27.22-.38.22a.78.78 0 0 1-.38-.1h-.05c-.06-.06-.06-.06-.11-.06.05 0 0 0 0 0z"/>
      <path class="st17" d="M19.57 18.22c.05 0 .05-.11.1-.22 0-.05.06-.1.06-.16s0-.16.05-.22c.06-.32 0-.76-.16-1.19a4.08 4.08 0 0 0-.7-1.24c-.16-.16-.38-.38-.7-.49-.27-.1-.6-.16-.92-.1.05 0 .05 0 .1.05 0 0 0 .05-.05.05s-.1.06-.16.11c-.05 0-.05.05-.1.05s-.12.06-.17.11c-.06.06-.1.06-.16.11s-.11.1-.17.1c-.05.06-.1.12-.16.12-.05.05-.05.05-.05.1-.16.22-.22.38-.27.55l-.22.6c.06-.12.11-.12.16-.17.17-.27.38-.6.65-.97a.73.73 0 0 1 .16-.11c.06 0 .06 0-.05.1.16-.1.33-.16.43-.26.06 0 .17-.06.22-.06h.38c.05 0 .05 0 .1.06.06 0 .06 0 .06.05 0 0 .05 0 .05.05.06.06.06.06.06.11s-.11.06 0 .16c0 .06.05.06.1.11.22.11.44.27.6.49.16.21.33.43.43.7.06.1.06.33.11.43.06.22.1.54.16.76 0 .1 0 .27.06.22z"/>
      <path class="st18" d="M15.24 17.9v-.55l-.16.87c0 .05.06.16.06.21.05-.21.05-.43.1-.54zm2.38-2.55c.06-.05 0-.05-.05-.05h-.22c-.32.1-.49.27-.7.38l-.16.16s-.11.05-.06-.06c-.05.06-.05.11-.1.17l-.06.05v.05c-.1.17.05-.16-.05-.05-.17.32-.27.65-.33.86-.05.11-.1.17-.1.17-.06 0-.06 0-.06-.06v-.43c0-.16.16-.49.32-.76-.1.06-.32.44-.21.22l.16-.32c0-.06.05-.11.05-.17 0-.05.06-.1.06-.1a3 3 0 0 0-.49.91l-.21.76c0 .06-.06.1-.06.16s-.05.11-.05.17v.54c-.06.1-.11.32-.11.54 0 .1.05.16.05.21.06.11.06-.05.06-.21v-.33c0-.1 0-.16.05-.21 0 .37.06.64.1.7.06.1.12.05.17-.06.06-.1.06-.16.06-.27.05-.1.05-.21.1-.37 0-.06 0-.17.06-.27 0-.11 0-.22.05-.33v.22c.11-.38.22-.49.33-.92 0 0 .05 0 0 .1 0-.1.05-.16.05-.16s.05-.05.1-.16c.06-.05.12-.05.17-.05s.1-.06.16-.22c0 0 0-.05.06-.05 0 0 0-.06.05-.06l.05-.05c.11-.16.28-.38.5-.43.15-.06.32-.06.48-.06h-.06c-.05-.1-.1-.1-.16-.16.06.06 0 0 0 0z"/>
      <path class="st19" d="M18.05 15.4c-.1-.1 0-.1 0-.16 0 0 0-.05-.05-.1 0 0-.05 0-.05-.06 0 0-.06 0-.06-.05-.05 0-.05 0-.1-.06h-.38c-.06 0-.17.06-.22.06a.96.96 0 0 0-.43.27c.1-.11.1-.11.05-.11s-.16.05-.16.1c-.33.39-.49.71-.65.98-.05.1-.1.1-.16.16.05-.27.16-.43.21-.6.06-.15.11-.32.27-.53 0 0 .06-.06.06-.11.05-.05.1-.1.16-.1.05-.06.1-.12.16-.12.06-.05.11-.05.16-.1.06-.06.11-.06.17-.11.05 0 .05-.06.1-.06.06-.05.11-.05.17-.1.05 0 .05-.06.05-.06s-.05-.05-.1-.05c-.11 0-.22.05-.33.1-.06 0-.1.06-.16.06l-.17.1c-.1.06-.16.11-.27.22l-.21.22c0 .05-.06.05-.06.1s-.05.12-.05.12c0 .05-.05.1-.05.16l-.17.32c-.05.22.17-.16.22-.21-.16.27-.38.59-.32.75v.43c0 .06.05.11.05.06.05 0 .05-.1.1-.16.12-.22.22-.49.33-.87.11-.1-.05.22.06.06v-.06l.05-.05c.05-.06.05-.11.1-.16-.05.1.06 0 .06.05l.16-.16c.22-.11.38-.27.7-.38h.22c.06 0 .11.05.06.05h.16a1 1 0 0 1 .38.11c0 .16 0 .1-.06.06z"/>
      <path class="st20" d="M16.7 16.05c-.1.11-.1.17-.16.22-.05 0-.1 0-.16.05l-.11.17s-.05.05-.05.16c.05-.1 0-.1 0-.1-.17.42-.22.59-.33.9v-.2c0 .1 0 .2-.05.32 0 .1 0 .21-.06.27-.05.16-.05.27-.1.38 0 .1-.06.21-.06.27-.05.1-.1.16-.16.05-.05-.1-.1-.32-.1-.7 0 .05-.06.1-.06.21v.33c0 .16 0 .32-.06.21 0-.05-.05-.1-.05-.21 0 .27.05.6.1.86.06.33.17.6.28.92.05 0 .05 0 0-.1 0-.11-.06-.17-.06-.22v-.16c0-.06 0-.11.06-.17.05-.05.1-.1.1-.37v-.44c.06-.21.17 0 .22-.21v-.38c.06-.11.11-.06.16-.33 0-.1.06-.16.06-.21 0-.06.05-.16.05-.22a.7.7 0 0 0 .11-.27.4.4 0 0 0 .1-.22l.06-.1.06-.11c.05-.33.16-.6.32-.87l-.05.06c0 .16 0 .16-.06.21.06 0 0 0 0 0z"/>
      <path class="st21" d="M19.51 21.03c0-.06.06-.11.06-.11 0-.06.05-.1.05-.1.06-.12.11-.17.11-.28-.22.38-.43.6-.6.76-.1.05-.21.16-.27.16-.1.05-.16.05-.27.1 0 0-.1.06-.27.12-.05.05-.16.05-.21.1-.11.06-.22.06-.27.06h-.33c-.1 0-.21 0-.27-.06-.05 0-.16-.05-.21-.05s-.11-.05-.11-.05h.22c.1 0 .27.05.43 0-.06 0-.16 0-.22-.06-.05 0-.1-.05-.16-.05-.05 0-.1-.06-.16-.06-.06-.05-.06-.05-.11-.05l-.16-.16-.06-.06-.05-.05c-.06-.05-.06-.1-.1-.16 0-.06-.06-.11-.06-.17-.06-.05-.06-.1-.06-.16-.05-.05-.05-.16-.1-.21-.11-.33-.11-.65-.11-.87 0-.1 0-.21.05-.32.05-.06.05-.11.1-.16.06-.06.06-.44.06-.82-.05-.1-.05-.27-.05-.43 0 .11-.06.16-.06.27 0 .06-.05.11-.05.16-.1.06-.16.17-.22.33-.05.16-.05.43 0 .8.06.28-.16.12-.16.28v.38c0 .1.06.21.06.32 0 .11.05.22.05.33.05.1.05.21.1.32 0 .06.06.1.12.22s.1.16.21.27c.22.1.43.27.65.32.1.06.27.06.38.06h.43c.11 0 .16-.06.27-.06.06-.05.16-.05.22-.1.1-.06.21-.11.27-.17.05-.05.1-.05.16-.1.05-.06.1-.06.16-.06.06-.05.17-.05.22-.16.05-.06.1-.06.1-.11s.06-.05.06-.1c.1.05.16 0 .16-.06z"/>
      <path class="st22" d="M16.05 17.9c0 .26-.1.2-.16.32-.05.05 0 .37 0 .37-.05.22-.16 0-.21.22v.43c0 .27-.06.33-.11.38 0 .06-.06.06-.06.16v.17c0 .05 0 .1.06.21v.11c-.11-.05.05.27.1.38s.11.21.17.27c.05.05.1.16.16.22.05.05.1.1.16.21.06.06.11.16.22.22.05.05.1.1.21.16-.1-.1-.16-.22-.21-.27-.06-.1-.11-.16-.11-.22a.75.75 0 0 1-.1-.32c0-.1-.06-.22-.06-.33 0-.1-.06-.21-.06-.32v-.38c0-.16.17 0 .17-.27-.06-.38-.06-.65 0-.8s.1-.28.21-.33c0 0 .06-.06.06-.17 0-.05.05-.16.05-.27v-.32c0-.05 0-.1.05-.16v-.06c0-.1 0-.21.06-.27 0-.1 0-.16.05-.27l-.05.11-.06.1c-.05.06-.1.12-.1.23a.41.41 0 0 0-.11.27c0 .05-.06.1-.06.21-.27-.16-.27-.05-.27 0z"/>
      <path class="st23" d="M20 20c0-.1.05-.22.05-.32.06-.27.06-.22.11-.38v-.11c-.05.22-.1.27-.16.27-.05.16-.1.32-.1.38-.06.05-.06.1-.12.1l-.1.11c-.06.11-.17.17-.22.27l-.16.17a.53.53 0 0 0-.16.21c-.06.06-.11.16-.22.27s-.16.17-.33.27c-.21.17-.21.11-.27.06 0 0-.05-.06-.1-.06h-.11c-.06 0-.11 0-.16.06-.11 0-.22.05-.38.05a.41.41 0 0 1-.27-.1c0-.06.05-.06.05-.11v-.06s-.05-.05-.1-.05a1.48 1.48 0 0 1-.44-.38c0-.06-.05-.06-.05-.1 0-.06-.06-.06-.06-.12 0-.05-.05-.05-.05-.1v-.11c-.06-.17-.06-.27-.06-.38s.06-.16.06-.22c-.1-.32-.22-.76-.33-1.19-.05.33 0 .76-.05.81-.05 0-.05.06-.1.17.05 0 .05.1.05.21 0 .22.05.54.16.87.05.05.05.16.1.21.06.06.06.11.06.16 0 .06.05.11.05.17 0 .05.06.1.11.16l.06.05.05.06.16.16c.06 0 .06.05.11.05.06.06.1.06.16.06s.11.05.17.05c.05 0 .16.06.21.06h-.65s.06.05.11.05.1.05.22.05c.05 0 .16.06.27.06h.32c.11 0 .22-.06.27-.06.11-.05.16-.05.22-.1a.7.7 0 0 1 .27-.11c.05 0 .16-.06.27-.11l.27-.16c.22-.16.43-.38.6-.76.05-.1.1-.16.1-.27.06-.1.11-.22.11-.27z"/>
      <path class="st24" d="M17.3 20.97c.05.06.1.06.1.06v.05c0 .06-.1.06-.05.1 0 .06.1.06.27.12.11 0 .27 0 .38-.06.05 0 .1-.05.16-.05h.11c.05 0 .05 0 .1.05.06.06.06.11.28-.05.1-.1.21-.16.32-.27.11-.1.17-.16.22-.27.05-.06.1-.16.16-.22l.16-.16c.06-.1.17-.16.22-.27l.1-.1c.06-.06.06-.12.12-.12.05-.05.1-.21.1-.37l-.05-.06s-.05.06-.1.22c-.06.1-.12.27-.17.38-.05.05-.05 0-.05-.11v-.6c-.06.11-.06.17-.11.22 0 .05 0 .05-.06.1v-.05a.57.57 0 0 1-.16.22l-.16.16c0 .06 0 .06-.05.11 0-.05 0-.05.05-.1-.05.05-.1.15-.16.2-.06.12-.11.17-.17.28-.05.05-.1.16-.21.21-.06.06-.06.06-.1.06-.06 0-.06.05-.12.05-.1.06-.32.16-.54.22h-.21c-.06 0-.06-.06-.06-.1h-.21l.05-.06c-.05 0-.05-.06-.1-.06 0-.05-.06-.05-.06-.05h.05s.06 0 .06.05c-.06 0-.06-.05-.11-.05h-.16.21a.75.75 0 0 1-.16-.22s-.05 0-.05-.05c0 0 .05 0 .05.05v-.05h-.05l-.06-.06s-.05-.05-.1-.05a.75.75 0 0 1-.17-.22v-.21c0-.06-.05-.16-.05-.27-.06.05-.06.1-.06.21s0 .22.06.38v.11c0 .05.05.05.05.1 0 .06.05.06.05.12 0 .05.06.1.06.1.1.17.22.33.38.38z"/>
    </g>
  </g>
  <path id="XMLID_7_" class="st25" d="M18.38 18.16c-.38 0-.7-.48-.7-1.13 0-.27.05-.49.16-.7-.11-.06-.22-.06-.33-.06-.7 0-1.24.92-1.24 2.05 0 1.14.54 2.06 1.24 2.06s1.25-.92 1.25-2.06v-.37c-.11.16-.22.21-.38.21z"/>
  <path class="st26" d="M18.43 18.05c-.75-.05-.65-1.3-.43-1.73 0-.05-.05-.05-.05-.05-.7-.22-1.25.27-1.52.87a3 3 0 0 0 .16 2.7c.33.54.98.75 1.52.38.75-.49.86-1.52.8-2.33 0-.1-.2 0-.26 0-.1.11-.16.16-.22.16-.16 0-.27.22-.05.17.21-.06.32-.11.54-.27h-.27c.05.64-.16 2.6-1.24 2.21-.82-.27-.98-1.57-.87-2.32.05-.38.16-.81.38-1.14.16-.16.43-.48.65-.38.16.11.05.17.05.33v.32c0 .49.22 1.14.76 1.2.05.1.21-.06.05-.12z"/>
  <g class="st11">
    <ellipse id="XMLID_6_" class="st12" cx="30.59" cy="18.43" rx="1.89" ry="3.19"/>
    <g class="st13">
      <path class="st14" d="M32.16 19.9l.06-.12s-.06 0-.06-.05c0-.1-.1.22-.21.49-.06.05.05 0 .21-.33z"/>
      <path class="st15" d="M32.86 18.54v-.16c-.05.1-.05.16 0 .16z"/>
      <path class="st14" d="M32.49 18.92c0 .1 0 .22-.06.27 0 .1 0 .16-.05.27.05-.1.05-.16.1-.22a.37.37 0 0 0 .11-.27v-.32s0 .1-.05.21c0 .11-.05.22-.05.33v-.38c0 .05 0 .05-.06.1v.17l.06-.16zm-1.25 1.78s.06 0 0 0c.06-.05.11-.1.11-.21l-.05.05-.06.05v.11h-.05v-.05l-.05.05h.05c-.05 0-.05.06-.1.06l-.06.05a.4.4 0 0 0 .21-.1z"/>
      <path class="st16" d="M30.27 20.92c0 .05 0 .05-.05.05.05 0 .1.06.1.06.06 0 .11.05.11.05-.05.06.06.16.27.16s.44-.1.54-.16c.11-.05.27-.16.44-.32.16-.17.27-.33.37-.44 0-.05 0-.05.06-.21a.41.41 0 0 0-.11.27c0-.06.05-.16.1-.22 0 .06-.05.06-.05.06v-.06c-.1.11-.16.22-.27.33-.1.05-.16.1-.21.1l-.06.06c-.21.27-.32.27-.32.21-.1.11-.27.22-.38.22a.78.78 0 0 1-.38-.1h-.05s-.06 0-.11-.06c.05.05.05.05 0 0z"/>
      <path class="st17" d="M32.54 18.43c.05 0 .05-.1.1-.21 0-.06.06-.11.06-.17 0-.05 0-.16.06-.21.05-.33 0-.76-.17-1.2a4.08 4.08 0 0 0-.7-1.23 1.86 1.86 0 0 0-.7-.5c-.27-.1-.6-.15-.92-.1.05 0 .05 0 .1.05 0 0 0 .06-.05.06s-.1.05-.16.1c-.05 0-.05.06-.1.06s-.11.06-.17.1c-.05.06-.1.06-.16.12-.05.05-.1.1-.16.1-.06.06-.11.11-.16.11-.06.06-.06.06-.06.11-.16.22-.21.38-.27.54-.05.16-.1.33-.22.6.06-.11.11-.11.17-.17.16-.27.38-.59.65-.97a.7.7 0 0 1 .16-.1c.05 0 .05 0-.06.1.17-.1.33-.16.44-.27.05 0 .16-.05.21-.05h.38c.05 0 .05 0 .1.05.06 0 .06 0 .06.06 0 0 .06 0 .06.05.05.05.05.05.05.1s-.1.06 0 .17c0 .05.06.05.1.1.23.12.44.28.6.5.17.21.33.43.44.7.05.1.05.32.1.43.06.22.11.54.17.76 0 .1.05.21.05.21z"/>
      <path class="st18" d="M28.27 18.1v-.53l-.16.86c0 .06.05.16.05.22 0-.22.06-.43.11-.54z"/>
      <path class="st18" d="M30.6 15.57c.05-.06 0-.06-.06-.06h-.22c-.32.11-.48.27-.7.38l-.16.16s-.1.06-.05-.05c-.06.05-.06.1-.11.16l-.06.06v.05c-.1.16.06-.16-.05-.05-.16.32-.27.64-.33.86-.05.1-.1.16-.1.16-.06 0-.06 0-.06-.05v-.43c0-.17.16-.49.33-.76-.11.05-.33.43-.22.22l.16-.33c0-.05.06-.1.06-.16 0-.05.05-.1.05-.1a3 3 0 0 0-.49.91c-.1.32-.16.6-.21.76 0 .05-.06.1-.06.16 0 .05-.05.1-.05.16v.54c-.05.11-.1.33-.1.54 0 .11.05.16.05.22.05.1.05-.06.05-.22v-.32c0-.11 0-.16.05-.22 0 .38.06.65.11.7.06.11.11.06.16-.05.06-.1.06-.16.06-.27.05-.1.05-.22.1-.38 0-.05 0-.16.06-.27 0-.1 0-.21.05-.32v.21c.11-.37.22-.48.33-.92 0 0 .05 0 0 .11 0-.1.05-.16.05-.16s.06-.05.11-.16c.06-.06.1-.06.16-.06s.11-.05.17-.21c0 0 0-.06.05-.06 0 0 0-.05.05-.05l.06-.05c.1-.17.27-.38.48-.44.17-.05.33-.05.5-.05h-.06c-.06-.16-.06-.16-.17-.16.06 0 .06 0 0 0z"/>
      <path class="st19" d="M31.03 15.62c-.11-.1 0-.1 0-.16 0 0 0-.05-.06-.1 0 0-.05 0-.05-.06 0 0-.06 0-.06-.06-.05 0-.05 0-.1-.05h-.38c-.06 0-.16.05-.22.05a.96.96 0 0 0-.43.27c.1-.1.1-.1.05-.1s-.16.05-.16.1c-.32.38-.48.7-.65.98-.05.1-.1.1-.16.16.05-.27.16-.43.22-.6.05-.16.1-.32.27-.54 0 0 .05-.05.05-.1.06-.06.1-.11.16-.11.06-.06.11-.11.17-.11.05-.05.1-.05.16-.1s.1-.06.16-.12c.05 0 .05-.05.1-.05.06-.06.12-.06.17-.1.05 0 .05-.06.05-.06s-.05-.06-.1-.06c-.11 0-.22.06-.33.11-.05 0-.1.05-.16.05l-.16.11c-.11.06-.16.11-.27.22l-.22.22c0 .05-.05.05-.05.1s-.06.11-.06.11c0 .06-.05.11-.05.16l-.16.33c-.06.21.16-.16.21-.22-.1.33-.32.7-.32.87v.43c0 .05.05.1.05.05.06 0 .06-.1.11-.16.1-.22.22-.49.33-.86.1-.11-.06.21.05.05v-.05l.05-.06c.06-.05.06-.1.11-.16-.05.1.06 0 .06.05l.16-.16c.21-.1.38-.27.7-.38h.22c.05 0 .1.06.05.06h.16a1 1 0 0 1 .38.1l-.05-.05z"/>
      <path class="st20" d="M29.68 16.27c-.11.1-.11.16-.17.22-.05 0-.1 0-.16.05-.05.1-.05.1-.1.16 0 0-.06.06-.06.16.05-.1 0-.1 0-.1l-.33.92v-.22c0 .1 0 .22-.05.32 0 .11 0 .22-.05.27-.06.17-.06.27-.11.38 0 .11-.06.22-.06.27-.05.11-.1.16-.16.06-.05-.11-.1-.33-.1-.7 0 .05-.06.1-.06.21v.32c0 .17 0 .33-.05.22 0-.05-.06-.1-.06-.22 0 .27.06.6.11.87.05.32.16.6.27.92.05 0 .05 0 0-.11 0-.1-.05-.16-.05-.22v-.16c0-.05 0-.1.05-.16.05-.05.1-.1.1-.38v-.43c.06-.22.17 0 .22-.22v-.38c.06-.1.11-.05.17-.32 0-.1.05-.16.05-.22 0-.05.06-.16.06-.21.05-.11.1-.22.1-.27a.38.38 0 0 0 .11-.22l.06-.1.05-.12c.05-.32.16-.59.32-.86l-.05.05c0 .17 0 .17-.05.22.05 0 .05 0 0 0z"/>
      <path class="st21" d="M32.54 21.24c0-.05.05-.1.05-.1 0-.06.06-.11.06-.11.05-.11.1-.17.1-.27-.2.38-.43.6-.59.75-.1.06-.21.17-.27.17-.1.05-.16.05-.27.1 0 0-.1.06-.27.11-.05.06-.16.06-.21.11-.11.05-.22.05-.28.05h-.32c-.1 0-.22 0-.27-.05-.05 0-.16-.05-.22-.05s-.1-.06-.1-.06h.21c.11 0 .27.06.43 0-.05 0-.16 0-.21-.05-.06 0-.11-.06-.16-.06-.06 0-.11-.05-.17-.05-.05-.05-.05-.05-.1-.05l-.17-.17-.05-.05-.05-.05c-.06-.06-.06-.11-.11-.17 0-.05-.06-.1-.06-.16-.05-.05-.05-.1-.05-.16-.05-.06-.05-.16-.1-.22-.17-.32-.17-.65-.17-.86 0-.11 0-.22.05-.33.06-.05.06-.1.11-.16.06-.05.06-.43.06-.8-.06-.12-.06-.28-.06-.44 0 .1-.05.16-.05.27 0 .05-.06.1-.06.16-.1.05-.16.16-.21.32-.06.17-.06.44 0 .82.05.27-.17.1-.17.27v.37c0 .11.06.22.06.33 0 .1.05.21.05.32.06.11.06.22.11.33 0 .05.06.1.1.21.06.11.12.17.23.27.21.11.43.27.64.33a1 1 0 0 0 .38.05h.43c.11 0 .17-.05.28-.05.05-.06.16-.06.21-.11.1-.05.22-.1.27-.16.06-.06.11-.06.16-.11.06-.05.11-.05.17-.05.05-.06.16-.06.21-.17.06-.05.11-.05.11-.1 0-.06.05-.06.05-.11.17 0 .17 0 .22-.06z"/>
      <path class="st22" d="M29.03 18.1c0 .28-.11.22-.17.33-.05.06 0 .38 0 .38-.05.22-.16 0-.21.22v.43c0 .27-.06.32-.1.38 0 .05-.06.05-.06.16v.16c0 .06 0 .11.05.22v.1c-.1-.05.05.28.1.38s.12.22.17.28c.05.05.1.16.16.21.06.06.11.1.17.22.05.05.1.16.21.21.06.06.1.11.22.17-.11-.11-.16-.22-.22-.27-.05-.11-.1-.17-.1-.22a.68.68 0 0 1-.11-.32c0-.11-.06-.22-.06-.33 0-.1-.05-.22-.05-.32v-.38c0-.16.16 0 .16-.27a1.97 1.97 0 0 1 0-.81c.05-.17.1-.27.22-.33 0 0 .05-.05.05-.16 0-.05.05-.16.05-.27v-.32c0-.06 0-.11.06-.17v-.05c0-.1 0-.22.05-.27 0-.1 0-.16.06-.27l-.06.1-.05.12c-.06.05-.11.1-.11.21a.41.41 0 0 0-.1.27c0 .06-.06.11-.06.22-.27-.16-.27-.11-.27 0z"/>
      <path class="st23" d="M33.03 20.16c0-.1.05-.21.05-.32.06-.27.06-.22.1-.38v-.1c-.04.1-.1.2-.15.15-.06.17-.11.33-.11.38-.06.06-.06.11-.1.11l-.12.1c-.05.12-.16.17-.21.28l-.17.16c-.05.05-.1.1-.16.22-.05.05-.1.16-.21.27s-.17.16-.33.27c-.21.16-.21.1-.27.05 0 0-.05-.05-.1-.05h-.11c-.06 0-.11 0-.17.05-.1 0-.21.06-.38.06a.41.41 0 0 1-.27-.11c0-.06.06-.06.06-.11v-.05s-.06-.06-.11-.06c-.16-.1-.32-.22-.43-.38 0-.05-.06-.05-.06-.1s-.05-.06-.05-.11-.05-.06-.05-.11v-.11c-.06-.16-.06-.27-.06-.38s.06-.16.06-.21c-.11-.33-.22-.76-.33-1.2-.05.33 0 .76-.05.82-.06 0-.06.05-.11.16v.38c0 .21.05.54.16.86.06.06.06.16.1.22.06.05.06.1.06.16s.06.1.06.16.05.11.1.17l.06.05.05.05.17.17c.05 0 .05.05.1.05.06.05.11.05.17.05.05 0 .1.06.16.06.05 0 .16.05.21.05h-.64s.05.06.1.06c.06 0 .11.05.22.05.05 0 .16.05.27.05h.32c.11 0 .22-.05.28-.05.1-.05.16-.05.21-.1.1-.06.22-.12.27-.12.06 0 .16-.05.27-.1l.27-.17c.22-.16.43-.37.6-.75.05-.11.1-.17.1-.27l.17-.33z"/>
      <path class="st24" d="M30.32 21.19c.06.05.11.05.11.05v.06c0 .05-.1.05-.05.1 0 .06.1.06.27.11.1 0 .27 0 .38-.05.05 0 .1-.05.16-.05h.1c.06 0 .06 0 .12.05.05.05.05.1.27-.05.1-.11.21-.17.32-.27.1-.11.16-.17.22-.28.05-.05.1-.16.16-.21l.16-.16c.05-.11.16-.17.22-.27l.1-.11c.06-.06.06-.11.11-.11.06-.05.11-.22.11-.38l-.05-.05s-.06.05-.11.21c-.06.11-.1.27-.16.38-.06.06-.06 0-.06-.1v-.6c-.05.1-.05.16-.1.22 0 .05 0 .05-.06.1v-.05c-.05.1-.1.16-.16.22l-.16.16c0 .05 0 .05-.06.1 0-.05 0-.05.06-.1-.06.05-.11.16-.17.21-.05.11-.1.17-.16.27-.05.06-.1.17-.21.22-.06.05-.06.05-.11.05-.06 0-.06.06-.11.06-.1.05-.32.16-.54.22h-.22c-.05 0-.05-.06-.05-.11h-.22l.06-.06c-.06 0-.06-.05-.11-.05 0-.06-.06-.06-.06-.06h.06s.05 0 .05.06c-.05 0-.05-.06-.1-.06h-.17.22a.53.53 0 0 1-.16-.21s-.06 0-.06-.06c0 0 .06 0 .06.06v-.06h-.06l-.05-.05s-.06-.05-.11-.05a.75.75 0 0 1-.16-.22v-.22c0-.05-.06-.16-.06-.27-.05.06-.05.11-.05.22s0 .22.05.38v.1c0 .06.06.06.06.11 0 .06.05.06.05.11 0 .06.06.11.06.11.05.16.16.33.37.38z"/>
    </g>
  </g>
  <path id="XMLID_5_" class="st25" d="M31.35 18.27c-.38 0-.7-.49-.7-1.13 0-.28.05-.5.16-.7-.1-.06-.22-.06-.32-.06-.7 0-1.25.92-1.25 2.05 0 1.14.54 2.06 1.25 2.06s1.24-.92 1.24-2.06v-.38c-.1.11-.27.22-.38.22z"/>
  <path class="st26" d="M31.4 18.16c-.7-.05-.64-1.24-.43-1.67 0-.06 0-.11-.05-.11-1.9-.6-2.06 2.6-1.35 3.62.32.54.97.76 1.51.38.76-.49.87-1.57.81-2.33 0-.1-.16-.05-.21-.05l-.33.16c-.21 0-.16.22 0 .22.22-.06.33-.11.43-.22-.05 0-.16 0-.21-.05a2.9 2.9 0 0 1-.43 1.89c-.5.54-1.09.27-1.41-.27s-.38-1.19-.27-1.78.49-1.63 1.3-1.4c0-.06-.06-.06-.06-.12-.27.6-.27 1.84.6 1.95.16 0 .27-.22.1-.22z"/>
  <path id="XMLID_4_" class="st7" d="M27.24 24.6l-3.13 4.1-3.08-4.1 3.08-3.09 3.13 3.08z"/>
  <path class="st8" d="M27.14 24.6c-1.03 1.35-2.06 2.75-3.14 4.1h.27c-.81-1.08-1.68-2.16-2.49-3.3-.16-.21-.32-.48-.54-.7-.05-.05-.05-.1-.1-.1.05.1-.06.1.05 0 .22-.17.43-.44.6-.6l.97-.97 1.46-1.46h-.27l3.13 3.13c.1.11.33-.05.27-.1l-3.13-3.14c-.06-.05-.17-.05-.27 0l-3.14 3.13s-.05.06 0 .11c1.03 1.35 2.05 2.76 3.14 4.11.05.05.21.05.27 0 1.02-1.35 2.05-2.76 3.13-4.1.1-.22-.16-.22-.21-.12z"/>
  <path id="XMLID_3_" d="M27.08 24.65l-2.92 3.84-.05-6.81 2.97 2.97z" fill="#DABD9E"/>
  <path id="XMLID_2_" class="st28" d="M19.24 7.35c-.8-.38-1.02 0-.27.33.76.48 2.17 1.5 3.3 3.3a19.06 19.06 0 0 1 1.84 4.16c-.11-.92-.38-2.7-1.52-4.55a11.92 11.92 0 0 0-3.35-3.24z"/>
  <path id="XMLID_1_" class="st28" d="M29.24 6.92c.81-.38 1.03 0 .27.32-.75.49-2.16 1.52-3.3 3.3a19.06 19.06 0 0 0-1.83 4.16c.1-.92.38-2.7 1.51-4.54a10.65 10.65 0 0 1 3.35-3.24z"/>
  <path class="st8" d="M20.6 30.1c.7.33 1.5.33 2.26 0 .06-.05-.16-.42-.32-.37-.7.32-1.46.32-2.16 0-.11-.05.1.32.21.38zm4.54 0c.7.33 1.5.39 2.27 0 .05-.05-.22-.42-.33-.37-.7.32-1.46.32-2.16 0-.1-.05.1.32.22.38zM22.97 32c.7.38 1.57.38 2.27 0 .06-.05-.21-.43-.32-.38a2.2 2.2 0 0 1-2.16 0c-.06 0 .16.33.21.38zm-3.19 1.78c.7.33 1.52.33 2.27 0 .06 0-.16-.43-.32-.37-.7.27-1.46.27-2.16 0-.11-.06.1.32.21.37zm6.11-.1c.7.32 1.52.32 2.27 0 .06-.06-.16-.44-.32-.38-.7.32-1.46.32-2.16 0-.11 0 .1.38.21.38z"/>
</svg>
